<svg data-v-9833e8b2="" version="1.1" xmlns="http://www.w3.org/2000/svg" xmlns:xlink="http://www.w3.org/1999/xlink" width="12" height="25"><g data-v-9833e8b2=""><path data-v-9833e8b2="" transform="scale(0.15527950310559005)" fill="none" stroke="rgba(68, 83, 109, 1)" paint-order="fill stroke markers" d="m61.50076,118.5c0,-10.75 -8.75,-19.5 -19.5,-19.5s-19.5,8.75 -19.5,19.5c0,9.38 6.66,17.23 15.5,19.08l0,18.42c0,2.21 1.79,4 4,4s4,-1.79 4,-4l0,-18.42c8.84,-1.85 15.5,-9.7 15.5,-19.08zm-19.5,11.5c-6.34,0 -11.5,-5.16 -11.5,-11.5s5.16,-11.5 11.5,-11.5s11.5,5.16 11.5,11.5s-5.16,11.5 -11.5,11.5z" stroke-width="5" stroke-miterlimit="10" stroke-dasharray=""></path><path data-v-9833e8b2="" transform="scale(0.15527950310559005)" fill="none" stroke="rgba(68, 83, 109, 1)" paint-order="fill stroke markers" d="m61.50076,42.5c0,-9.38 -6.66,-17.23 -15.5,-19.08l0,-18.42c0,-2.21 -1.79,-4 -4,-4s-4,1.79 -4,4l0,18.42c-8.84,1.85 -15.5,9.7 -15.5,19.08c0,8.57 5.56,15.85 13.26,18.46l-34.25,61.09c-1.08,1.93 -0.39,4.37 1.53,5.45c0.62,0.35 1.29,0.51 1.95,0.51c1.4,0 2.76,-0.74 3.49,-2.04l35.95,-64.13c9.61,-1.22 17.07,-9.42 17.07,-19.34zm-19.5,11.5c-6.34,0 -11.5,-5.16 -11.5,-11.5s5.16,-11.5 11.5,-11.5s11.5,5.16 11.5,11.5s-5.16,11.5 -11.5,11.5z" stroke-width="5" stroke-miterlimit="10" stroke-dasharray=""></path></g></svg>