<?xml version="1.0" standalone="no"?><!DOCTYPE svg PUBLIC "-//W3C//DTD SVG 1.1//EN" "http://www.w3.org/Graphics/SVG/1.1/DTD/svg11.dtd"><svg t="1719391963543" class="icon" viewBox="0 0 1024 1024" version="1.1" xmlns="http://www.w3.org/2000/svg" p-id="6430" xmlns:xlink="http://www.w3.org/1999/xlink" width="260" height="260">
<path d="M512 960c-247.04 0-448-200.96-448-448S264.96 64 512 64s448 200.96 448 448-200.96 448-448 448z" fill="#E1F5FE" p-id="6431"/>
<path d="M512 320c-141.12 0-256 114.88-256 256 0 141.12 114.88 256 256 256s256-114.88 256-256c0-141.12-114.88-256-256-256z m0 448c-105.856 0-192-86.144-192-192s86.144-192 192-192 192 86.144 192 192-86.144 192-192 192z" fill="#29B6F6" p-id="6432"/>
<path d="M512 448c-70.592 0-128 57.408-128 128s57.408 128 128 128 128-57.408 128-128-57.408-128-128-128z" fill="#0288D1" p-id="6433"/>
</svg> 