<?xml version="1.0" standalone="no"?><!DOCTYPE svg PUBLIC "-//W3C//DTD SVG 1.1//EN" "http://www.w3.org/Graphics/SVG/1.1/DTD/svg11.dtd"><svg class="icon" width="200px" height="200.00px" viewBox="0 0 1024 1024" version="1.1" xmlns="http://www.w3.org/2000/svg"><path d="M128 384v384h512V384H128z m0 0h512v64H128z m0 64h128v320H128z m128 0h128v320H256z m128 0h128v320H384z m128 0h128v320H512z" fill="#E1F1F9"/><path d="M128 384h512v64H128z" fill="#0FA7DB"/><path d="M256 384v384 M384 384v384 M512 384v384 M128 512h512 M128 576h512 M128 640h512 M128 704h512" stroke="#0FA7DB" stroke-width="2" fill="none"/><path d="M320 128h576v448H320z" fill="#FFFFFF" stroke="#52C41A" stroke-width="3"/><path d="M320 128h576v64H320z" fill="#52C41A"/><circle cx="860" cy="160" r="12" fill="#52C41A"/><path d="M854 154l12 12 M866 154l-12 12" stroke="#FFFFFF" stroke-width="2"/><path d="M360 220h240v20H360z M360 260h200v20H360z M360 300h180v20H360z M360 340h220v20H360z M360 380h160v20H360z M360 420h190v20H360z M360 460h210v20H360z M360 500h150v20H360z" fill="#52C41A" opacity="0.3"/></svg> 